# xmcd
#
# Track frame offsets:
#	150
#	9847
#	20850
#	32855
#	44475
#	56127
#	64775
#	76725
#	88242
#	100372
#
# Disc length: 1494
#
# Revision: 5
# Processed by: cddbd v1.5.1PL0 Copyright (c) Steve Scherf et al.
# Submitted via: Grip 2.94
# Normalized: r3:TSWAP
#
DISCID=8005d40a
DTITLE=Owen Bradley (producer) - The Nashville Sound...
DYEAR=1900
DGENRE=
TTITLE0=Loretta Lynn - Don't Come Home A Drinkin'
TTITLE1=Conway Twitty - Hello Darlin'
TTITLE2=Kitty Wells - It Wasn't God Who Made Honky Tonk Angels
TTITLE3=Red Foley - Chattanoogie Shoe Shine Boy
TTITLE4=Patsy Cline - Sweet Dreams
TTITLE5=Webb Pierce - I Ain't Never
TTITLE6=Brenda Lee - I'm Sorry
TTITLE7=Ernest Tubb - Thanks A Lot
TTITLE8=Patsy Cline - Crazy
TTITLE9=Jack Green - There Goes My Everything
EXTD=
EXTT0=
EXTT1=
EXTT2=
EXTT3=
EXTT4=
EXTT5=
EXTT6=
EXTT7=
EXTT8=
EXTT9=
PLAYORDER=
